Coordinates
version=1
nRows=15
nColumns=46
inDegrees=yes

Units are S.I. units (second, meters, Newtons, ...)
Angles are in degrees.

endheader
time	pelvis_tilt	pelvis_list	pelvis_rotation	pelvis_tx	pelvis_ty	pelvis_tz	bb_angle	bb_tx	bb_ty	bb_tz	hip_flexion_r	hip_adduction_r	hip_rotation_r	knee_angle_r	knee_angle_r_beta	ankle_angle_r	subtalar_angle_r	mtp_angle_r	crank_angle_r	hip_flexion_l	hip_adduction_l	hip_rotation_l	knee_angle_l	knee_angle_l_beta	ankle_angle_l	subtalar_angle_l	mtp_angle_l	crank_angle_l	lumbar_extension	lumbar_bending	lumbar_rotation	arm_flex_r	arm_add_r	arm_rot_r	elbow_flex_r	pro_sup_r	wrist_flex_r	wrist_dev_r	arm_flex_l	arm_add_l	arm_rot_l	elbow_flex_l	pro_sup_l	wrist_flex_l	wrist_dev_l
      2.50000000	    -17.90089279	     -1.78730207	      2.06114091	      0.13150288	      1.14591896	     -0.25410642	      0.00000000	      0.50000000	      0.00000000	      0.25000000	     65.35569972	     -7.30277040	     -5.06767422	     90.64683369	      1.58208570	      2.91127389	     -6.99608958	      0.00000000	      0.00000000	     74.96443617	     -4.24944527	      3.28133031	     69.35974894	      1.21055599	      0.85560814	     -4.97054440	      0.00000000	      0.00000000	    -51.35657440	      0.76568115	      4.34670160	     89.79244101	     -3.67951249	     23.37408814	     30.15157113	     25.48220383	      0.00000000	      0.00000000	     89.71975660	      3.44357155	     26.59446658	     30.09108256	     25.48389922	      0.00000000	      0.00000000
      2.50500000	    -17.91698927	     -1.79663549	      1.98316097	      0.13155982	      1.14600352	     -0.25412728	      0.00000000	      0.50000000	      0.00000000	      0.25000000	     65.78251697	     -7.24711495	     -4.92544378	     91.31778903	      1.59379608	      3.16177439	     -6.91394520	      0.00000000	      0.00000000	     74.60987012	     -4.26328575	      3.34200926	     68.70221030	      1.19907977	      0.12180012	     -4.98603929	      0.00000000	      0.00000000	    -51.35763363	      0.64138823	      4.39803815	     89.79462245	     -4.49467291	     26.50738774	     30.55649859	     22.63571578	      0.00000000	      0.00000000	     89.71612214	      3.05415283	     27.79562682	     30.76796717	     22.77845668	      0.00000000	      0.00000000
      2.51000000	    -17.80136277	     -1.88217124	      1.93838609	      0.13158677	      1.14640270	     -0.25416963	      0.00000000	      0.50000000	      0.00000000	      0.25000000	     66.07631988	     -7.17489295	     -4.88023387	     92.04348150	      1.60646181	      3.53733533	     -6.83554237	      0.00000000	      0.00000000	     74.07094766	     -4.28994903	      3.48263054	     67.94526802	      1.18586864	     -0.70803886	     -5.08175432	      0.00000000	      0.00000000	    -51.59976957	      0.64915542	      4.51977309	     89.79174451	     -4.48204464	     25.53424286	     30.73542324	     23.69253868	      0.00000000	      0.00000000	     89.70534786	      3.13333797	     26.95004675	     30.89085645	     23.85295341	      0.00000000	      0.00000000
      2.51500000	    -17.62081438	     -1.96647199	      1.90448163	      0.13159882	      1.14699853	     -0.25419158	      0.00000000	      0.50000000	      0.00000000	      0.25000000	     66.33283619	     -7.11574519	     -4.84894415	     92.82114160	      1.62003454	      3.98705561	     -6.82981773	      0.00000000	      0.00000000	     73.38656825	     -4.32582577	      3.60572132	     67.09539500	      1.17103556	     -1.55928844	     -5.13475262	      0.00000000	      0.00000000	    -51.95943156	      0.66348622	      4.58341189	     89.78877067	     -4.51405676	     25.05544786	     31.00710595	     24.39623231	      0.00000000	      0.00000000	     89.69387324	      3.08025908	     26.33883162	     31.30437934	     24.59194613	      0.00000000	      0.00000000
      2.52000000	    -17.66728462	     -2.06318196	      1.83775639	      0.13163429	      1.14684278	     -0.25416508	      0.00000000	      0.50000000	      0.00000000	      0.25000000	     66.92643264	     -7.04503518	     -4.78043655	     93.73767198	      1.63603101	      4.48132663	     -6.60832672	      0.00000000	      0.00000000	     72.91411913	     -4.36689689	      3.76551802	     66.21585666	      1.15568472	     -2.49032882	     -5.10342877	      0.00000000	      0.00000000	    -51.92407256	      0.64107978	      4.60352892	     89.79094649	     -4.90403739	     26.53798720	     30.55756189	     26.11974461	      0.00000000	      0.00000000	     89.67947201	      2.72515849	     26.82409810	     31.05971183	     26.61655771	      0.00000000	      0.00000000
      2.52500000	    -17.52060968	     -2.14041456	      1.75016848	      0.13172770	      1.14725465	     -0.25412249	      0.00000000	      0.50000000	      0.00000000	      0.25000000	     67.33520851	     -6.96824753	     -4.71183011	     94.66367051	      1.65219273	      5.01645474	     -6.55811463	      0.00000000	      0.00000000	     72.12195351	     -4.44564517	      3.88332755	     65.22762342	      1.13843679	     -3.32451427	     -5.14683792	      0.00000000	      0.00000000	    -52.24395155	      0.60479411	      4.78100833	     89.78382532	     -5.09718500	     25.82321765	     31.17310821	     26.63014116	      0.00000000	      0.00000000	     89.65806509	      2.74548530	     26.08154412	     31.59707658	     27.13313094	      0.00000000	      0.00000000
      2.53000000	    -17.51195019	     -2.23543983	      1.66389401	      0.13188467	      1.14729745	     -0.25404363	      0.00000000	      0.50000000	      0.00000000	      0.25000000	     67.94406970	     -6.86913207	     -4.62541172	     95.63933983	      1.66922137	      5.51120705	     -6.31062184	      0.00000000	      0.00000000	     71.42240527	     -4.52911021	      3.96356274	     64.20583310	      1.12060319	     -4.06159966	     -5.25280326	      0.00000000	      0.00000000	    -52.31187710	      0.55728767	      4.86702405	     89.78518807	     -5.46754026	     27.06331454	     32.42943096	     19.80160221	      0.00000000	      0.00000000	     89.64958947	      2.74104683	     26.28259236	     32.66054507	     21.14576772	      0.00000000	      0.00000000
      2.53500000	    -17.42229104	     -2.34995581	      1.57613157	      0.13205163	      1.14748744	     -0.25398581	      0.00000000	      0.50000000	      0.00000000	      0.25000000	     68.50759894	     -6.78452602	     -4.58908982	     96.64765086	      1.68681972	      6.01306350	     -6.22486609	      0.00000000	      0.00000000	     70.54751675	     -4.61961326	      4.09009505	     63.10892058	      1.10145845	     -4.68801100	     -5.33054712	      0.00000000	      0.00000000	    -52.54328113	      0.54985102	      4.99770148	     89.78169729	     -5.63321538	     26.74544024	     32.71081095	     20.67668922	      0.00000000	      0.00000000	     89.63266481	      2.68431946	     25.86928942	     32.91837115	     21.89674003	      0.00000000	      0.00000000
      2.54000000	    -17.42481870	     -2.47082641	      1.44309944	      0.13231500	      1.14744552	     -0.25392253	      0.00000000	      0.50000000	      0.00000000	      0.25000000	     69.21923869	     -6.67448464	     -4.53571024	     97.66856463	      1.70463803	      6.39587762	     -6.06200548	      0.00000000	      0.00000000	     69.70127895	     -4.74523226	      4.18457789	     61.97637975	      1.08169189	     -5.12863010	     -5.51284697	      0.00000000	      0.00000000	    -52.62780967	      0.51612472	      5.16098421	     89.77867539	     -5.83695194	     26.75861197	     32.77646766	     21.38686050	      0.00000000	      0.00000000	     89.61721092	      2.69200721	     25.52239040	     32.95978544	     22.51046170	      0.00000000	      0.00000000
      2.54500000	    -17.41027491	     -2.81301204	      1.26633611	      0.13248326	      1.14694644	     -0.25373605	      0.00000000	      0.50000000	      0.00000000	      0.25000000	     69.97117591	     -6.44132458	     -4.73857546	     98.72027095	      1.72299377	      6.47803528	     -6.10259260	      0.00000000	      0.00000000	     68.93311914	     -5.05745160	      4.43850140	     61.07192290	      1.06590614	     -5.11085438	     -5.48689319	      0.00000000	      0.00000000	    -52.67912558	      0.63350609	      5.44431931	     89.77788050	     -5.85480311	     26.78383085	     32.82686000	     21.38951752	      0.00000000	      0.00000000	     89.60197988	      2.57046177	     25.48583585	     33.00316542	     22.50955832	      0.00000000	      0.00000000
      2.55000000	    -17.30147600	     -2.71184634	      1.16297494	      0.13289898	      1.14749887	     -0.25383031	      0.00000000	      0.50000000	      0.00000000	      0.25000000	     70.61929313	     -6.50334853	     -4.49874834	     99.65316972	      1.73927592	      6.58301731	     -5.99418686	      0.00000000	      0.00000000	     67.62911906	     -4.98714852	      4.34718668	     59.57167497	      1.03972187	     -5.33971205	     -5.97879907	      0.00000000	      0.00000000	    -52.94091334	      0.44470555	      5.48886956	     89.77436655	     -6.37703268	     27.11397656	     33.32991446	     21.43835919	      0.00000000	      0.00000000	     89.58344370	      2.54442070	     25.46587699	     33.39105026	     22.53641542	      0.00000000	      0.00000000
      2.55500000	    -17.32262117	     -2.99246488	      1.00313505	      0.13324420	      1.14718560	     -0.25370164	      0.00000000	      0.50000000	      0.00000000	      0.25000000	     71.43426058	     -6.33733666	     -4.65070902	    100.58046567	      1.75546029	      6.44051853	     -5.98912504	      0.00000000	      0.00000000	     66.65383132	     -5.21834794	      4.56649802	     58.39205000	      1.01913353	     -5.06435401	     -6.08493464	      0.00000000	      0.00000000	    -52.97890970	      0.53574077	      5.76849741	     89.77387706	     -6.49308413	     27.19213115	     33.44204804	     21.44796165	      0.00000000	      0.00000000	     89.56228024	      2.45797682	     25.40793832	     33.49108799	     22.54245513	      0.00000000	      0.00000000
      2.56000000	    -17.24391762	     -3.08014556	      0.85017769	      0.13368394	      1.14712596	     -0.25376232	      0.00000000	      0.50000000	      0.00000000	      0.25000000	     72.21887853	     -6.30566081	     -4.61004406	    101.51119015	      1.77170450	      5.98385168	     -6.14065134	      0.00000000	      0.00000000	     65.44672599	     -5.32870970	      4.58617127	     57.12129368	      0.99695465	     -4.63475401	     -6.32986014	      0.00000000	      0.00000000	    -53.15591282	      0.47372657	      5.90020747	     89.76934516	     -6.81130489	     27.39273540	     33.72075242	     21.48578035	      0.00000000	      0.00000000	     89.54474555	      2.46655866	     25.32358662	     33.70302559	     22.56869177	      0.00000000	      0.00000000
      2.56500000	    -17.16361995	     -3.22899232	      0.68178375	      0.13415799	      1.14702937	     -0.25367900	      0.00000000	      0.50000000	      0.00000000	      0.25000000	     72.99611902	     -6.24476994	     -4.68092077	    102.38177173	      1.78689901	      5.43576955	     -6.38898480	      0.00000000	      0.00000000	     64.18822557	     -5.46810919	      4.68565584	     55.79493016	      0.97380524	     -4.19127146	     -6.75006544	      0.00000000	      0.00000000	    -53.33250921	      0.42623880	      6.13727642	     89.76605303	     -7.23196634	     27.83310798	     34.17774063	     21.55213693	      0.00000000	      0.00000000	     89.52685421	      2.41882142	     25.11616478	     34.03741096	     22.61248526	      0.00000000	      0.00000000
      2.57000000	    -17.17697401	     -3.52322068	      0.48064856	      0.13468806	      1.14656590	     -0.25368379	      0.00000000	      0.50000000	      0.00000000	      0.25000000	     73.87492436	     -6.09857072	     -4.85673234	    103.23377405	      1.80176926	      4.98314359	     -6.38695846	      0.00000000	      0.00000000	     63.07119045	     -5.73612094	      4.86865472	     54.54072885	      0.95191529	     -3.63463377	     -7.01806507	      0.00000000	      0.00000000	    -53.36555845	      0.53938364	      6.44767992	     89.76316301	     -7.37279080	     28.00732387	     34.31770138	     21.57213346	      0.00000000	      0.00000000	     89.49843862	      2.35242273	     25.02632479	     34.13614846	     22.62705084	      0.00000000	      0.00000000
